<?xml version="1.0" encoding="UTF-8"?>
<svg xmlns="http://www.w3.org/2000/svg" viewBox="0 0 700 580" width="700" height="580">
  <defs>
    <style>
      .title { font-family: 'Helvetica Neue', Arial, sans-serif; font-size: 14px; font-weight: 600; fill: #000; }
      .label { font-family: 'Helvetica Neue', Arial, sans-serif; font-size: 11px; fill: #333; }
      .sublabel { font-family: 'Helvetica Neue', Arial, sans-serif; font-size: 9px; fill: #666; }
      .edge-label { font-family: 'Helvetica Neue', Arial, sans-serif; font-size: 11px; fill: #333; font-weight: 500; }
      .section-title { font-family: 'Helvetica Neue', Arial, sans-serif; font-size: 10px; font-weight: 600; fill: #666; letter-spacing: 1px; }
    </style>
    <marker id="arrow" markerWidth="10" markerHeight="10" refX="8" refY="3" orient="auto" markerUnits="userSpaceOnUse">
      <path d="M0,0 L0,6 L9,3 z" fill="#666"/>
    </marker>
    <marker id="arrow-cyan" markerWidth="10" markerHeight="10" refX="8" refY="3" orient="auto" markerUnits="userSpaceOnUse">
      <path d="M0,0 L0,6 L9,3 z" fill="#0097A7"/>
    </marker>
    <marker id="arrow-orange" markerWidth="10" markerHeight="10" refX="8" refY="3" orient="auto" markerUnits="userSpaceOnUse">
      <path d="M0,0 L0,6 L9,3 z" fill="#E65100"/>
    </marker>
  </defs>

  <!-- Background -->
  <rect width="700" height="580" fill="#fff"/>

  <!-- ==================== USER INTERFACES ==================== -->
  <text x="350" y="25" text-anchor="middle" class="section-title">USER INTERFACES</text>

  <!-- CLI Box (left, separate) -->
  <g transform="translate(40, 45)">
    <rect x="0" y="0" width="110" height="65" rx="4" fill="#f5f5f5" stroke="#333" stroke-width="1.5"/>
    <!-- Terminal icon -->
    <rect x="12" y="12" width="28" height="20" rx="2" fill="none" stroke="#333" stroke-width="1.5"/>
    <text x="17" y="26" font-family="monospace" font-size="8" fill="#333">&gt;_</text>
    <text x="50" y="24" class="label">CLI</text>
    <text x="50" y="38" class="sublabel">p2a binary</text>
    <text x="55" y="54" class="sublabel" fill="#E65100">Direct</text>
  </g>

  <!-- Desktop + Web grouped together above LLM -->
  <!-- Desktop App Box -->
  <g transform="translate(230, 45)">
    <rect x="0" y="0" width="110" height="65" rx="4" fill="#f5f5f5" stroke="#333" stroke-width="1.5"/>
    <!-- Window icon -->
    <rect x="12" y="12" width="28" height="20" rx="2" fill="none" stroke="#333" stroke-width="1.5"/>
    <line x1="12" y1="19" x2="40" y2="19" stroke="#333" stroke-width="1"/>
    <circle cx="16" cy="15.5" r="1.5" fill="#333"/>
    <circle cx="21" cy="15.5" r="1.5" fill="#333"/>
    <text x="50" y="24" class="label">Desktop</text>
    <text x="50" y="38" class="sublabel">Chat UI</text>
    <text x="55" y="54" class="sublabel" fill="#0097A7">via LLM</text>
  </g>

  <!-- Web Client Box -->
  <g transform="translate(360, 45)">
    <rect x="0" y="0" width="110" height="65" rx="4" fill="#f5f5f5" stroke="#333" stroke-width="1.5"/>
    <!-- Globe icon -->
    <circle cx="26" cy="22" r="10" fill="none" stroke="#333" stroke-width="1.5"/>
    <ellipse cx="26" cy="22" rx="4" ry="10" fill="none" stroke="#333" stroke-width="1"/>
    <line x1="16" y1="22" x2="36" y2="22" stroke="#333" stroke-width="1"/>
    <text x="50" y="24" class="label">Web</text>
    <text x="50" y="38" class="sublabel">Browser</text>
    <text x="55" y="54" class="sublabel" fill="#0097A7">via LLM</text>
  </g>

  <!-- ==================== LLM LAYER (wider) ==================== -->
  <g transform="translate(160, 140)">
    <rect x="0" y="0" width="380" height="95" rx="6" fill="#E0F7FA" stroke="#0097A7" stroke-width="2"/>
    <text x="190" y="20" text-anchor="middle" class="section-title" fill="#0097A7">LLM LAYER</text>

    <!-- Robot head icons for LLM providers -->
    <g transform="translate(50, 32)">
      <rect x="3" y="6" width="22" height="17" rx="3" fill="none" stroke="#0097A7" stroke-width="1.5"/>
      <circle cx="10" cy="14" r="2.5" fill="#0097A7"/>
      <circle cx="18" cy="14" r="2.5" fill="#0097A7"/>
      <line x1="14" y1="0" x2="14" y2="6" stroke="#0097A7" stroke-width="1.5"/>
      <circle cx="14" cy="0" r="2" fill="none" stroke="#0097A7" stroke-width="1.5"/>
    </g>
    <text x="95" y="52" class="label">Ollama</text>
    <text x="95" y="65" class="sublabel">Local</text>

    <g transform="translate(160, 32)">
      <rect x="3" y="6" width="22" height="17" rx="3" fill="none" stroke="#0097A7" stroke-width="1.5"/>
      <circle cx="10" cy="14" r="2.5" fill="#0097A7"/>
      <circle cx="18" cy="14" r="2.5" fill="#0097A7"/>
      <line x1="14" y1="0" x2="14" y2="6" stroke="#0097A7" stroke-width="1.5"/>
      <circle cx="14" cy="0" r="2" fill="none" stroke="#0097A7" stroke-width="1.5"/>
    </g>
    <text x="205" y="52" class="label">Claude</text>
    <text x="205" y="65" class="sublabel">Cloud</text>

    <g transform="translate(270, 32)">
      <rect x="3" y="6" width="22" height="17" rx="3" fill="none" stroke="#0097A7" stroke-width="1.5"/>
      <circle cx="10" cy="14" r="2.5" fill="#0097A7"/>
      <circle cx="18" cy="14" r="2.5" fill="#0097A7"/>
      <line x1="14" y1="0" x2="14" y2="6" stroke="#0097A7" stroke-width="1.5"/>
      <circle cx="14" cy="0" r="2" fill="none" stroke="#0097A7" stroke-width="1.5"/>
    </g>
    <text x="315" y="52" class="label">GPT</text>
    <text x="315" y="65" class="sublabel">Cloud</text>

    <text x="190" y="85" text-anchor="middle" class="sublabel" fill="#0097A7">Interprets intent, selects tools</text>
  </g>

  <!-- ==================== MCP SERVER ==================== -->
  <g transform="translate(270, 265)">
    <rect x="0" y="0" width="160" height="55" rx="4" fill="#fff" stroke="#666" stroke-width="1.5"/>
    <!-- Server icon -->
    <rect x="15" y="12" width="25" height="8" rx="1" fill="none" stroke="#666" stroke-width="1.2"/>
    <rect x="15" y="24" width="25" height="8" rx="1" fill="none" stroke="#666" stroke-width="1.2"/>
    <circle cx="35" cy="16" r="2" fill="#0097A7"/>
    <circle cx="35" cy="28" r="2" fill="#0097A7"/>
    <text x="55" y="20" class="label">MCP Server</text>
    <text x="55" y="34" class="sublabel">101 Tools</text>
  </g>

  <!-- ==================== CORE ENGINE ==================== -->
  <g transform="translate(30, 360)">
    <rect x="0" y="0" width="640" height="115" rx="6" fill="#FFF3E0" stroke="#E65100" stroke-width="2"/>
    <text x="320" y="20" text-anchor="middle" class="section-title" fill="#E65100">p2a-core ENGINE (LOCAL COMPUTATION)</text>

    <!-- Method boxes -->
    <g transform="translate(15, 32)">
      <rect x="0" y="0" width="95" height="65" rx="3" fill="#fff" stroke="#E65100" stroke-width="1"/>
      <text x="47" y="16" text-anchor="middle" class="label" font-weight="600">Regression</text>
      <text x="47" y="30" text-anchor="middle" class="sublabel">OLS</text>
      <text x="47" y="42" text-anchor="middle" class="sublabel">Robust SEs</text>
      <text x="47" y="54" text-anchor="middle" class="sublabel">Clustered</text>
    </g>

    <g transform="translate(120, 32)">
      <rect x="0" y="0" width="95" height="65" rx="3" fill="#fff" stroke="#E65100" stroke-width="1"/>
      <text x="47" y="16" text-anchor="middle" class="label" font-weight="600">Panel</text>
      <text x="47" y="30" text-anchor="middle" class="sublabel">Fixed Effects</text>
      <text x="47" y="42" text-anchor="middle" class="sublabel">Random Effects</text>
      <text x="47" y="54" text-anchor="middle" class="sublabel">HDFE</text>
    </g>

    <g transform="translate(225, 32)">
      <rect x="0" y="0" width="95" height="65" rx="3" fill="#fff" stroke="#E65100" stroke-width="1"/>
      <text x="47" y="16" text-anchor="middle" class="label" font-weight="600">Causal</text>
      <text x="47" y="30" text-anchor="middle" class="sublabel">2SLS / IV</text>
      <text x="47" y="42" text-anchor="middle" class="sublabel">DiD</text>
      <text x="47" y="54" text-anchor="middle" class="sublabel">Treatments</text>
    </g>

    <g transform="translate(330, 32)">
      <rect x="0" y="0" width="95" height="65" rx="3" fill="#fff" stroke="#E65100" stroke-width="1"/>
      <text x="47" y="16" text-anchor="middle" class="label" font-weight="600">Discrete</text>
      <text x="47" y="30" text-anchor="middle" class="sublabel">Logit / Probit</text>
      <text x="47" y="42" text-anchor="middle" class="sublabel">MLE</text>
      <text x="47" y="54" text-anchor="middle" class="sublabel">Marginal FX</text>
    </g>

    <g transform="translate(435, 32)">
      <rect x="0" y="0" width="95" height="65" rx="3" fill="#fff" stroke="#E65100" stroke-width="1"/>
      <text x="47" y="16" text-anchor="middle" class="label" font-weight="600">Time Series</text>
      <text x="47" y="30" text-anchor="middle" class="sublabel">VAR / VECM</text>
      <text x="47" y="42" text-anchor="middle" class="sublabel">ARIMA</text>
      <text x="47" y="54" text-anchor="middle" class="sublabel">Forecasting</text>
    </g>

    <g transform="translate(540, 32)">
      <rect x="0" y="0" width="85" height="65" rx="3" fill="#fff" stroke="#E65100" stroke-width="1"/>
      <text x="42" y="16" text-anchor="middle" class="label" font-weight="600">ML</text>
      <text x="42" y="30" text-anchor="middle" class="sublabel">K-Means</text>
      <text x="42" y="42" text-anchor="middle" class="sublabel">PCA</text>
      <text x="42" y="54" text-anchor="middle" class="sublabel">Clustering</text>
    </g>
  </g>

  <!-- ==================== DEPENDENCIES ==================== -->
  <g transform="translate(150, 505)">
    <rect x="0" y="0" width="400" height="45" rx="4" fill="#f5f5f5" stroke="#999" stroke-width="1"/>
    <text x="200" y="17" text-anchor="middle" class="section-title" fill="#666">RUST DEPENDENCIES</text>
    <text x="60" y="35" text-anchor="middle" class="label">polars</text>
    <text x="140" y="35" text-anchor="middle" class="label">ndarray</text>
    <text x="220" y="35" text-anchor="middle" class="label">faer</text>
    <text x="300" y="35" text-anchor="middle" class="label">statrs</text>
    <text x="360" y="35" text-anchor="middle" class="label">...</text>
  </g>

  <!-- ==================== ARROWS ==================== -->
  <!-- CLI direct to Core (orange, prominent) -->
  <path d="M95,110 L95,360" stroke="#E65100" stroke-width="2.5" fill="none" marker-end="url(#arrow-orange)"/>
  <text x="105" y="240" class="edge-label" fill="#E65100">Direct</text>

  <!-- Desktop to LLM -->
  <path d="M285,110 L285,135 L310,135 L310,140" stroke="#0097A7" stroke-width="1.5" fill="none" marker-end="url(#arrow-cyan)"/>

  <!-- Web to LLM -->
  <path d="M415,110 L415,135 L390,135 L390,140" stroke="#0097A7" stroke-width="1.5" fill="none" marker-end="url(#arrow-cyan)"/>

  <!-- LLM to MCP -->
  <path d="M350,235 L350,265" stroke="#666" stroke-width="1.5" fill="none" marker-end="url(#arrow)"/>
  <text x="360" y="252" class="edge-label">Tool calls</text>

  <!-- MCP to Core -->
  <path d="M350,320 L350,360" stroke="#E65100" stroke-width="1.5" fill="none" marker-end="url(#arrow-orange)"/>
  <text x="360" y="342" class="edge-label" fill="#E65100">Execute</text>

  <!-- Core to Dependencies -->
  <path d="M350,475 L350,505" stroke="#999" stroke-width="1" fill="none" marker-end="url(#arrow)"/>

  <!-- ==================== KEY INSIGHT CALLOUT (top right) ==================== -->
  <g transform="translate(540, 45)">
    <rect x="0" y="0" width="130" height="50" rx="4" fill="#FCE4EC" stroke="#C2185B" stroke-width="1.5"/>
    <text x="65" y="18" text-anchor="middle" class="label" fill="#C2185B" font-weight="600">Key Design</text>
    <text x="65" y="32" text-anchor="middle" class="sublabel" fill="#C2185B">LLM decides method</text>
    <text x="65" y="44" text-anchor="middle" class="sublabel" fill="#C2185B">Compute locally</text>
  </g>
</svg>
